<svg width="803" height="249" viewBox="0 0 803 249" fill="none" xmlns="http://www.w3.org/2000/svg">
<path fill-rule="evenodd" clip-rule="evenodd" d="M675.079 0H122.857C55.0051 0 0 55.2802 0 123.472C0 191.663 55.0051 246.943 122.857 246.943H675.079C742.93 246.943 797.938 191.663 797.938 123.472C797.938 55.2802 742.93 0 675.079 0ZM193.428 190.737H240.107L160.097 118.871L233.952 61.1103H185.914L130.915 105.614H130.221V57.5391H96.7617V190.737H130.221V133.005H130.869L193.428 190.737ZM242.386 175.269C254.966 187.549 272.558 194.311 291.912 194.311C312.638 194.311 330.13 186.638 341.256 172.683H341.92L343.998 190.74H374.972V61.1137H343.99L341.912 79.1739H341.247C330.147 65.2233 312.638 57.5508 291.912 57.5508C272.558 57.5508 254.966 64.3169 242.386 76.5971C229.665 89.0061 222.662 106.532 222.662 125.933C222.662 145.334 229.665 162.856 242.386 175.269ZM256.641 125.933C256.641 100.897 272.654 85.9528 299.472 85.9528C325.33 85.9528 342.041 101.645 342.041 125.933C342.041 150.221 325.33 165.913 299.472 165.913C272.654 165.913 256.641 150.968 256.641 125.933ZM504.686 190.737H538.404V119.569C538.404 99.5199 532.776 83.9071 521.672 73.2061C510.887 62.8101 495.498 57.5391 475.932 57.5391C455.621 57.5391 437.975 65.5043 427.361 79.4173H426.726L424.905 61.102H393.906V190.737H427.366V125.905C427.366 113.855 431.276 103.784 438.678 96.7804C446.009 89.8427 456.457 86.1796 468.891 86.1796C481.916 86.1796 491.001 89.1953 496.666 95.3682C502.064 101.241 504.686 110.43 504.686 123.378V190.737ZM571.853 175.269C584.435 187.549 602.023 194.311 621.378 194.311C642.101 194.311 659.596 186.638 670.71 172.683H671.38L673.457 190.74H704.442V61.1137H673.457L671.38 79.1739H670.71C659.612 65.2233 642.101 57.5508 621.378 57.5508C602.023 57.5508 584.435 64.3169 571.853 76.5971C559.132 89.0061 552.127 106.532 552.127 125.933C552.127 145.334 559.132 162.856 571.853 175.269ZM586.107 125.933C586.107 100.897 602.117 85.9528 628.938 85.9528C654.794 85.9528 671.508 101.645 671.508 125.933C671.508 150.221 654.794 165.913 628.938 165.913C602.117 165.913 586.107 150.968 586.107 125.933Z" fill="#FBF9F9"/>
</svg>
