<svg width="803" height="249" viewBox="0 0 803 249" fill="none" xmlns="http://www.w3.org/2000/svg">
<path fill-rule="evenodd" clip-rule="evenodd" d="M675.079 0H122.857C55.0051 0 0 55.2802 0 123.472C0 191.663 55.0051 246.943 122.857 246.943H675.079C742.93 246.943 797.938 191.663 797.938 123.472C797.938 55.2802 742.93 0 675.079 0ZM193.429 190.737H240.108L160.098 118.871L233.953 61.1103H185.915L130.916 105.614H130.222V57.5391H96.7627V190.737H130.222V133.005H130.87L193.429 190.737ZM242.387 175.269C254.967 187.549 272.559 194.311 291.913 194.311C312.639 194.311 330.131 186.638 341.257 172.683H341.921L343.999 190.74H374.973V61.1137H343.991L341.913 79.1739H341.248C330.148 65.2233 312.639 57.5508 291.913 57.5508C272.559 57.5508 254.967 64.3169 242.387 76.5971C229.666 89.0061 222.663 106.532 222.663 125.933C222.663 145.334 229.666 162.856 242.387 175.269ZM256.642 125.933C256.642 100.897 272.655 85.9528 299.473 85.9528C325.331 85.9528 342.042 101.645 342.042 125.933C342.042 150.221 325.331 165.913 299.473 165.913C272.655 165.913 256.642 150.968 256.642 125.933ZM504.687 190.737H538.405V119.569C538.405 99.5199 532.777 83.9071 521.673 73.2061C510.888 62.8101 495.499 57.5391 475.933 57.5391C455.622 57.5391 437.976 65.5043 427.362 79.4173H426.727L424.906 61.102H393.907V190.737H427.367V125.905C427.367 113.855 431.277 103.784 438.679 96.7804C446.01 89.8427 456.458 86.1796 468.892 86.1796C481.917 86.1796 491.002 89.1953 496.667 95.3682C502.065 101.241 504.687 110.43 504.687 123.378V190.737ZM571.853 175.269C584.435 187.549 602.023 194.311 621.378 194.311C642.101 194.311 659.596 186.638 670.71 172.683H671.38L673.457 190.74H704.442V61.1137H673.457L671.38 79.1739H670.71C659.612 65.2233 642.101 57.5508 621.378 57.5508C602.023 57.5508 584.435 64.3169 571.853 76.5971C559.132 89.0061 552.127 106.532 552.127 125.933C552.127 145.334 559.132 162.856 571.853 175.269ZM586.107 125.933C586.107 100.897 602.117 85.9528 628.938 85.9528C654.794 85.9528 671.508 101.645 671.508 125.933C671.508 150.221 654.794 165.913 628.938 165.913C602.117 165.913 586.107 150.968 586.107 125.933Z" fill="black"/>
</svg>
